<svg width="140" height="88" viewBox="0 0 140 88" fill="none" xmlns="http://www.w3.org/2000/svg">
<path d="M4.88777 62.0054C4.88777 62.0054 2.42676 62.0054 2.42676 64.4281V66.33C2.42676 66.33 2.42676 68.7528 4.88777 68.7528H134.696C135.021 68.7593 135.343 68.701 135.645 68.5814C135.946 68.4619 136.219 68.2836 136.449 68.0571C136.678 67.8308 136.858 67.561 136.979 67.2642C137.099 66.9674 137.157 66.6496 137.151 66.33V64.4281C137.151 64.4281 137.15 62.0054 134.696 62.0054H4.88777Z" fill="#F39B00"/>
<path d="M38.2283 35.2101C38.1435 39.1389 36.4988 42.8788 33.6467 45.6278C30.7946 48.377 26.962 49.9166 22.9706 49.9166C18.9792 49.9166 15.1466 48.377 12.2945 45.6278C9.44242 42.8788 7.79772 39.1389 7.71301 35.2101C7.71301 27.2304 14.4911 20.496 22.9809 20.4622C26.9825 20.4492 30.8278 21.9906 33.6823 24.7516C36.5369 27.5127 38.1703 31.2707 38.2283 35.2101ZM45.9481 35.1558C45.9481 23.122 34.9079 14.1339 22.9947 14.1068C11.0815 14.0796 0 23.122 0 35.1558C0 47.1898 11.0746 56.2389 22.926 56.266C34.7773 56.293 45.9481 47.183 45.9481 35.1558Z" fill="#F39B00"/>
<path d="M132.076 35.2101C132.076 39.1933 130.469 43.0132 127.609 45.8298C124.749 48.6464 120.869 50.2287 116.822 50.2287C112.777 50.2287 108.897 48.6464 106.036 45.8298C103.176 43.0132 101.568 39.1933 101.568 35.2101C101.568 27.2304 108.34 20.496 116.83 20.4622C120.831 20.4492 124.677 21.9906 127.531 24.7516C130.386 27.5127 132.019 31.2707 132.076 35.2101ZM139.79 35.1558C139.79 23.122 128.756 14.1339 116.85 14.1068C104.944 14.0796 93.8486 23.122 93.8486 35.1558C93.8486 47.1898 104.923 56.2389 116.775 56.266C128.626 56.293 139.79 47.183 139.79 35.1558Z" fill="#F39B00"/>
<path d="M83.9972 42.5941C83.9972 46.4656 81.1237 47.5147 77.8103 47.5147H58.0122V37.2541H77.9822C81.55 37.2541 83.9972 38.7702 83.9972 42.5941ZM82.4505 27.1965C82.4505 30.337 80.2713 31.65 77.3429 31.65H58.0122V22.9055H76.7104C79.687 22.9055 82.4505 23.6364 82.4505 27.1965ZM90.0604 25.782C90.0604 18.8175 85.1659 16.5164 77.9272 16.5164H53.2414C52.363 16.5216 51.5219 16.8666 50.8995 17.4768C50.2771 18.0871 49.9232 18.9138 49.9143 19.7786V50.6619C49.9095 51.093 49.993 51.5205 50.1598 51.9191C50.3267 52.3176 50.5733 52.679 50.8852 52.9816C51.197 53.2842 51.5676 53.5219 51.9748 53.6803C52.382 53.8387 52.8175 53.9148 53.2552 53.9038H78.4772C85.3515 53.9038 91.8821 50.6552 91.8821 43.0747C91.8821 38.4115 89.5379 34.8988 84.9115 33.5993C88.2112 32.0291 90.0741 29.4639 90.0741 25.7955" fill="#F39B00"/>
<path d="M5.02499 1.74121C5.02499 1.74121 2.56397 1.7412 2.56397 4.16407V6.06582C2.55739 6.38546 2.61661 6.70311 2.73805 6.99961C2.85948 7.29612 3.04063 7.56538 3.27057 7.79112C3.50052 8.01688 3.77449 8.19444 4.07601 8.31317C4.37753 8.43189 4.70034 8.4893 5.02499 8.48193H134.688C134.688 8.48193 137.15 8.48193 137.15 6.06582V4.16407C137.15 4.16407 137.15 1.74121 134.688 1.74121H5.02499Z" fill="#F39B00"/>
<path d="M123.834 86.2241H126.804V79.3346L132.379 86.258H136.972V76.6951H134.008V83.6185L128.434 76.6951H123.834V86.2241ZM108.663 86.2241H111.633V79.3346L117.207 86.258H121.848V76.6951H118.885V83.6185L113.31 76.6951H108.711L108.663 86.2241ZM100.619 78.9014L102.544 82.4816H98.7498L100.619 78.9014ZM93.4568 86.2241H96.7703L97.6366 84.539H103.652L104.572 86.2241H107.872L102.558 76.6951H98.6954L93.4568 86.2241ZM77.1028 86.2241H79.99V79.3751L83.8808 86.2241H86.1013L89.9921 79.3751V86.2241H92.8793V76.6951H88.3217L84.967 82.8267L81.6124 76.6951H77.0478L77.1028 86.2241ZM63.2441 86.2241H66.2138V83.7472H70.8746C71.7957 83.7472 72.0914 84.0788 72.0914 85.1007V86.2512H75.061V84.627C75.061 83.0637 74.3256 82.6846 73.4456 82.5222C74.8205 82.2109 75.1024 81.4597 75.1024 80.1805V79.5782C75.1024 77.866 74.4836 76.7493 72.2013 76.7493H63.2647L63.2441 86.2241ZM66.2138 79.0639H70.8471C71.782 79.0639 72.222 79.2195 72.222 80.0587V80.3769C72.222 81.0536 71.9264 81.3785 71.1221 81.3785H66.2206L66.2138 79.0639ZM50.6915 86.2241H61.4567V83.9299H53.6613V82.4004H60.8793V80.431H53.6613V78.9014H61.278V76.6951H50.6915V86.2241ZM38.2215 79.0639H42.3942V86.2241H45.357V79.0639H49.5298V76.6951H38.2215V79.0639ZM28.1987 79.0639H32.3714V86.2241H35.3342V79.0639H39.507V76.6951H28.1987V79.0639ZM16.6223 86.2241H27.3806V83.9299H19.592V82.4004H26.81V80.431H19.592V78.9014H27.2088V76.6951H16.6223V86.2241ZM5.39648 78.9827H10.6485C11.1984 78.9827 11.5147 79.1789 11.5147 79.7339C11.5147 80.2889 11.1984 80.4716 10.6485 80.4716H5.39648V78.9827ZM5.39648 82.441H10.7172C11.3566 82.441 11.7827 82.5899 11.7827 83.2328C11.7827 83.8758 11.3566 83.9096 10.7172 83.9096H5.39648V82.441ZM2.42676 86.2241H11.8583C13.5563 86.2241 14.8075 85.7843 14.8075 83.693C14.8075 82.2583 14.3262 81.5747 13.0338 81.4191V81.3649C13.8588 81.1281 14.4637 80.8099 14.4637 79.1789C14.4637 77.311 13.3157 76.6816 10.951 76.6816H2.42676V86.2241Z" fill="#1E1E1E"/>
</svg>
